<?xml version="1.0" standalone="no"?>
<!DOCTYPE svg PUBLIC "-//W3C//DTD SVG 20010904//EN"
 "http://www.w3.org/TR/2001/REC-SVG-20010904/DTD/svg10.dtd">
<svg version="1.0" xmlns="http://www.w3.org/2000/svg"
 width="1024.000000pt" height="1024.000000pt" viewBox="0 0 1024.000000 1024.000000"
 preserveAspectRatio="xMidYMid meet">

<g transform="translate(0.000000,1024.000000) scale(0.100000,-0.100000)"
fill="#000000" stroke="none">
<path d="M1175 6680 c-188 -39 -322 -163 -371 -345 -11 -40 -14 -257 -14
-1136 0 -1056 1 -1089 20 -1151 21 -70 80 -167 126 -210 52 -48 144 -96 214
-112 60 -14 195 -16 1024 -16 651 0 972 3 1008 11 184 38 339 189 377 367 8
37 11 373 11 1115 0 1157 2 1115 -56 1230 -34 67 -134 164 -204 199 -120 60
-86 58 -1135 57 -528 -1 -978 -5 -1000 -9z m2037 -203 c33 -16 76 -49 101 -77
78 -87 77 -76 77 -799 l0 -633 -65 60 c-197 181 -473 211 -733 81 -71 -36 -85
-40 -96 -28 -7 8 -116 142 -241 299 -269 337 -272 340 -338 376 -44 25 -63 29
-127 29 -139 -1 -149 -10 -502 -457 -161 -205 -299 -379 -305 -388 -10 -12
-12 125 -10 670 l2 685 27 51 c40 76 115 132 205 153 22 5 456 9 993 8 l955
-2 57 -28z m-1375 -880 c20 -11 513 -614 513 -628 0 -11 -312 -215 -385 -251
-162 -82 -341 -118 -585 -118 -183 0 -400 21 -400 39 0 15 733 938 758 953 31
21 68 22 99 5z m1256 -626 c97 -46 175 -127 225 -233 61 -126 67 -165 67 -398
-1 -170 -4 -213 -18 -249 -28 -71 -80 -126 -155 -163 -66 -33 -67 -33 -237
-36 l-170 -4 -19 47 c-48 120 -188 290 -316 385 -119 88 -302 167 -455 196
l-37 7 79 42 c43 23 175 106 293 184 362 240 415 264 575 258 88 -3 108 -7
168 -36z m-1991 -536 c73 -8 223 -21 333 -30 358 -28 532 -54 673 -101 215
-72 377 -199 480 -376 l21 -38 -683 0 c-597 0 -689 2 -736 16 -95 28 -153 81
-200 179 -9 20 -16 85 -19 198 -3 92 -5 167 -4 167 0 0 61 -7 135 -15z"/>
<path d="M2653 6242 c-97 -35 -161 -91 -211 -186 -24 -46 -27 -61 -27 -156 0
-100 1 -108 34 -168 41 -75 94 -125 170 -161 48 -22 69 -26 151 -26 82 0 103
4 150 26 78 37 131 87 171 161 32 60 34 68 34 163 0 90 -3 106 -29 159 -62
125 -171 197 -311 203 -60 3 -93 -1 -132 -15z m195 -183 c76 -37 118 -134 93
-212 -28 -84 -132 -142 -212 -118 -55 17 -113 71 -128 121 -33 111 53 229 168
230 19 0 54 -10 79 -21z"/>
<path d="M7822 5261 c3 -507 4 -520 24 -547 44 -59 68 -69 166 -69 l90 0 2 69
1 68 -35 12 c-19 6 -40 22 -47 36 -10 19 -13 135 -13 488 l0 462 -95 0 -96 0
3 -519z"/>
<path d="M3980 5200 l0 -560 100 0 100 0 0 210 0 211 96 -3 96 -3 117 -207
116 -208 122 0 122 0 -118 198 c-64 108 -125 209 -134 223 l-17 25 53 24 c28
13 75 47 104 76 66 65 88 131 81 243 -11 178 -123 293 -314 321 -38 5 -171 10
-296 10 l-228 0 0 -560z m500 379 c178 -38 182 -282 6 -334 -32 -10 -94 -15
-178 -15 l-128 0 0 180 0 180 125 0 c68 0 147 -5 175 -11z"/>
<path d="M5177 5440 c-119 -30 -188 -95 -221 -207 l-15 -53 93 0 92 0 13 36
c20 55 62 76 143 72 82 -4 116 -26 138 -87 23 -66 14 -73 -143 -98 -225 -35
-299 -71 -333 -160 -23 -59 -24 -156 -2 -198 79 -149 356 -164 475 -26 l22 26
1 -52 0 -53 91 0 90 0 -3 293 c-3 283 -4 294 -27 345 -29 64 -94 124 -159 147
-57 19 -202 28 -255 15z m249 -525 c-11 -54 -70 -113 -133 -131 -100 -29 -173
3 -173 76 0 73 42 102 192 130 56 11 104 22 107 26 9 9 13 -65 7 -101z"/>
<path d="M5915 5432 c-66 -22 -149 -101 -164 -157 -24 -89 -4 -182 50 -232 37
-34 105 -60 203 -78 49 -9 101 -21 115 -27 72 -27 93 -94 45 -139 -22 -20 -35
-24 -92 -24 -85 0 -121 18 -147 72 l-20 42 -92 1 c-88 0 -93 -1 -93 -21 0 -84
84 -191 175 -223 119 -41 282 -29 377 28 128 77 157 253 57 348 -41 40 -99 61
-251 93 -99 21 -142 49 -146 96 -4 48 29 78 95 85 67 8 134 -20 152 -65 l13
-31 94 0 c108 0 109 1 70 85 -29 64 -88 117 -160 144 -71 26 -206 28 -281 3z"/>
<path d="M6835 5433 c-62 -23 -89 -42 -121 -84 l-24 -33 0 57 0 57 -95 0 -95
0 0 -395 0 -395 95 0 95 0 0 250 c0 275 3 292 59 345 29 27 38 30 101 30 54 0
73 -4 90 -20 46 -41 50 -68 50 -345 l0 -261 98 3 97 3 5 265 c6 294 7 299 73
341 48 30 137 23 176 -15 45 -44 51 -81 51 -350 l0 -246 95 0 95 0 0 280 c0
309 -6 357 -53 428 -46 68 -108 97 -207 97 -93 -1 -163 -29 -219 -90 l-39 -42
-37 43 c-20 24 -54 53 -76 65 -57 29 -152 34 -214 12z"/>
<path d="M8411 5435 c-61 -17 -106 -42 -138 -77 -27 -29 -73 -126 -73 -155 0
-22 3 -23 89 -23 l89 0 7 29 c11 50 48 75 119 79 85 6 137 -20 160 -79 18 -45
14 -75 -12 -83 -9 -3 -73 -14 -142 -25 -261 -42 -329 -95 -330 -256 0 -115 49
-177 169 -212 102 -29 240 4 301 74 l30 34 0 -51 0 -50 91 0 90 0 -3 298 -3
297 -29 59 c-30 62 -85 109 -154 134 -59 21 -198 24 -261 7z m269 -451 c0
-101 -60 -182 -149 -204 -97 -23 -161 9 -161 81 0 71 51 106 190 129 41 7 82
16 90 21 25 14 30 10 30 -27z"/>
<path d="M9320 5413 c-32 -17 -68 -47 -87 -72 l-33 -43 0 66 0 66 -97 0 -98 0
2 -392 2 -393 95 -3 95 -3 3 245 3 244 31 39 c44 55 85 73 172 73 l72 0 0 90
c0 50 0 93 0 98 0 4 -24 8 -53 10 -43 2 -64 -3 -107 -25z"/>
</g>
</svg>
